<svg width="1000" height="1000" viewBox="0 0 1000 1000" fill="none" xmlns="http://www.w3.org/2000/svg">
<rect width="1000" height="1000" fill="black"/>
<path d="M417.256 531.142L417.385 530.659C403.149 526.874 388.73 520.802 378.049 511.352L377.718 511.726L378.049 511.352C367.746 502.238 360.687 489.836 360.687 471.88C360.687 471.151 360.622 470.438 360.496 469.745C376.466 466.692 390.462 457.186 401.153 444.056C405.144 439.155 404.52 431.853 399.754 427.74L399.753 427.74C394.978 423.623 387.86 424.271 383.862 429.18L384.25 429.496L383.862 429.18C374.092 441.182 361.955 447.618 349.414 447.618C335.914 447.618 322.827 440.135 312.729 426.277L312.35 426.553L312.729 426.277C302.628 412.415 296.047 392.733 296.047 370.5C296.047 348.267 302.628 328.585 312.729 314.723C319.983 304.769 328.78 298.104 338.159 295.139C338.497 301.214 343.395 306.056 349.414 306.056C355.653 306.056 360.687 300.854 360.687 294.467C360.687 268.091 368.626 250.135 379.325 237.585C390.216 224.81 404.641 216.865 418.568 211.972C425.695 209.469 432.062 211.252 437.014 215.753C442.188 220.455 445.874 228.308 445.874 237.442V503.559C445.874 522.559 431.448 534.4 417.385 530.659L417.256 531.142ZM363.341 528.919L363.672 528.545L363.341 528.92C377.706 541.628 395.86 548.875 411.737 553.096C427.731 557.35 441.921 552.464 452.097 542.76C462.261 533.066 468.421 518.568 468.421 503.559V237.442C468.421 222.081 462.257 207.76 451.949 198.391C441.421 188.82 426.676 184.632 411.277 190.041C395.012 195.754 376.683 205.517 362.368 222.31C351.715 234.806 343.64 250.786 340.104 270.943C321.844 273.857 306.083 285.185 294.683 300.828C281.389 319.072 273.5 343.743 273.5 370.5C273.5 397.257 281.389 421.928 294.683 440.171C305.712 455.307 320.824 466.402 338.331 469.748C338.206 470.439 338.14 471.151 338.14 471.88C338.14 497.281 348.599 515.875 363.341 528.919Z" fill="url(#paint0_linear_3_10)" stroke="black"/>
<path fill-rule="evenodd" clip-rule="evenodd" d="M555.186 359.412H511.015C505.066 359.412 500.241 364.377 500.241 370.5C500.241 376.623 505.066 381.588 511.015 381.588H555.186C560.176 406.894 581.915 425.941 607.975 425.941C637.725 425.941 661.842 401.119 661.842 370.5C661.842 339.881 637.725 315.059 607.975 315.059C581.915 315.059 560.176 334.106 555.186 359.412ZM575.655 370.418C575.698 352.082 590.152 337.235 607.975 337.235C625.825 337.235 640.296 352.129 640.296 370.5C640.296 388.871 625.825 403.765 607.975 403.765C590.152 403.765 575.698 388.918 575.655 370.582V370.5V370.418Z" fill="url(#paint1_linear_3_10)"/>
<path fill-rule="evenodd" clip-rule="evenodd" d="M572.175 462.133C581.693 453.413 594.233 448.118 607.975 448.118C637.725 448.118 661.842 472.94 661.842 503.559C661.842 534.178 637.725 559 607.975 559C578.226 559 554.108 534.178 554.108 503.559C554.108 495.047 555.972 486.986 559.301 479.779C558.907 479.533 558.523 479.258 558.153 478.952L504.286 434.599C499.638 430.773 498.886 423.797 502.603 419.015C506.32 414.232 513.098 413.458 517.746 417.283L571.613 461.636C571.807 461.796 571.994 461.962 572.175 462.133ZM607.975 470.294C590.126 470.294 575.655 485.188 575.655 503.559C575.655 521.93 590.126 536.824 607.975 536.824C625.825 536.824 640.296 521.93 640.296 503.559C640.296 485.188 625.825 470.294 607.975 470.294Z" fill="url(#paint2_linear_3_10)"/>
<path fill-rule="evenodd" clip-rule="evenodd" d="M607.975 182C578.226 182 554.108 206.822 554.108 237.441C554.108 245.952 555.972 254.014 559.301 261.221C558.907 261.467 558.523 261.743 558.153 262.048L504.286 306.401C499.638 310.226 498.886 317.204 502.603 321.986C506.32 326.768 513.098 327.544 517.746 323.718L571.613 279.365C571.807 279.205 571.994 279.039 572.175 278.868C581.693 287.586 594.233 292.882 607.975 292.882C637.725 292.882 661.842 268.06 661.842 237.441C661.842 206.822 637.725 182 607.975 182ZM575.655 237.441C575.655 219.07 590.126 204.176 607.975 204.176C625.825 204.176 640.296 219.07 640.296 237.441C640.296 255.813 625.825 270.706 607.975 270.706C590.126 270.706 575.655 255.813 575.655 237.441Z" fill="url(#paint3_linear_3_10)"/>
<path d="M259.303 676.3C261.503 676.3 263.436 676.267 265.103 676.2C266.836 676.067 268.27 675.867 269.403 675.6V660.1C268.736 659.767 267.636 659.5 266.103 659.3C264.636 659.033 262.836 658.9 260.703 658.9C259.303 658.9 257.803 659 256.203 659.2C254.67 659.4 253.236 659.833 251.903 660.5C250.636 661.1 249.57 661.967 248.703 663.1C247.836 664.167 247.403 665.6 247.403 667.4C247.403 670.733 248.47 673.067 250.603 674.4C252.736 675.667 255.636 676.3 259.303 676.3ZM258.503 629.7C262.236 629.7 265.37 630.2 267.903 631.2C270.503 632.133 272.57 633.5 274.103 635.3C275.703 637.033 276.836 639.133 277.503 641.6C278.17 644 278.503 646.667 278.503 649.6V682.1C277.703 682.233 276.57 682.433 275.103 682.7C273.703 682.9 272.103 683.1 270.303 683.3C268.503 683.5 266.536 683.667 264.403 683.8C262.336 684 260.27 684.1 258.203 684.1C255.27 684.1 252.57 683.8 250.103 683.2C247.636 682.6 245.503 681.667 243.703 680.4C241.903 679.067 240.503 677.333 239.503 675.2C238.503 673.067 238.003 670.5 238.003 667.5C238.003 664.633 238.57 662.167 239.703 660.1C240.903 658.033 242.503 656.367 244.503 655.1C246.503 653.833 248.836 652.9 251.503 652.3C254.17 651.7 256.97 651.4 259.903 651.4C260.836 651.4 261.803 651.467 262.803 651.6C263.803 651.667 264.736 651.8 265.603 652C266.536 652.133 267.336 652.267 268.003 652.4C268.67 652.533 269.136 652.633 269.403 652.7V650.1C269.403 648.567 269.236 647.067 268.903 645.6C268.57 644.067 267.97 642.733 267.103 641.6C266.236 640.4 265.036 639.467 263.503 638.8C262.036 638.067 260.103 637.7 257.703 637.7C254.636 637.7 251.936 637.933 249.603 638.4C247.336 638.8 245.636 639.233 244.503 639.7L243.403 632C244.603 631.467 246.603 630.967 249.403 630.5C252.203 629.967 255.236 629.7 258.503 629.7ZM303.249 683H293.949V631H303.249V683ZM298.549 621.6C296.883 621.6 295.449 621.067 294.249 620C293.116 618.867 292.549 617.367 292.549 615.5C292.549 613.633 293.116 612.167 294.249 611.1C295.449 609.967 296.883 609.4 298.549 609.4C300.216 609.4 301.616 609.967 302.749 611.1C303.949 612.167 304.549 613.633 304.549 615.5C304.549 617.367 303.949 618.867 302.749 620C301.616 621.067 300.216 621.6 298.549 621.6ZM341.842 684.2C337.642 684.2 333.942 683.533 330.742 682.2C327.609 680.867 324.942 679 322.742 676.6C320.609 674.2 319.009 671.367 317.942 668.1C316.876 664.767 316.342 661.1 316.342 657.1C316.342 653.1 316.909 649.433 318.042 646.1C319.242 642.767 320.909 639.9 323.042 637.5C325.176 635.033 327.776 633.133 330.842 631.8C333.976 630.4 337.442 629.7 341.242 629.7C343.576 629.7 345.909 629.9 348.242 630.3C350.576 630.7 352.809 631.333 354.942 632.2L352.842 640.1C351.442 639.433 349.809 638.9 347.942 638.5C346.142 638.1 344.209 637.9 342.142 637.9C336.942 637.9 332.942 639.533 330.142 642.8C327.409 646.067 326.042 650.833 326.042 657.1C326.042 659.9 326.342 662.467 326.942 664.8C327.609 667.133 328.609 669.133 329.942 670.8C331.342 672.467 333.109 673.767 335.242 674.7C337.376 675.567 339.976 676 343.042 676C345.509 676 347.742 675.767 349.742 675.3C351.742 674.833 353.309 674.333 354.442 673.8L355.742 681.6C355.209 681.933 354.442 682.267 353.442 682.6C352.442 682.867 351.309 683.1 350.042 683.3C348.776 683.567 347.409 683.767 345.942 683.9C344.542 684.1 343.176 684.2 341.842 684.2ZM410.357 657C410.357 661.133 409.757 664.867 408.557 668.2C407.357 671.533 405.657 674.4 403.457 676.8C401.324 679.2 398.757 681.067 395.757 682.4C392.757 683.667 389.49 684.3 385.957 684.3C382.424 684.3 379.157 683.667 376.157 682.4C373.157 681.067 370.557 679.2 368.357 676.8C366.224 674.4 364.557 671.533 363.357 668.2C362.157 664.867 361.557 661.133 361.557 657C361.557 652.933 362.157 649.233 363.357 645.9C364.557 642.5 366.224 639.6 368.357 637.2C370.557 634.8 373.157 632.967 376.157 631.7C379.157 630.367 382.424 629.7 385.957 629.7C389.49 629.7 392.757 630.367 395.757 631.7C398.757 632.967 401.324 634.8 403.457 637.2C405.657 639.6 407.357 642.5 408.557 645.9C409.757 649.233 410.357 652.933 410.357 657ZM400.657 657C400.657 651.133 399.324 646.5 396.657 643.1C394.057 639.633 390.49 637.9 385.957 637.9C381.424 637.9 377.824 639.633 375.157 643.1C372.557 646.5 371.257 651.133 371.257 657C371.257 662.867 372.557 667.533 375.157 671C377.824 674.4 381.424 676.1 385.957 676.1C390.49 676.1 394.057 674.4 396.657 671C399.324 667.533 400.657 662.867 400.657 657ZM439.041 684C433.308 683.867 429.241 682.633 426.841 680.3C424.441 677.967 423.241 674.333 423.241 669.4V607L432.541 605.4V667.9C432.541 669.433 432.675 670.7 432.941 671.7C433.208 672.7 433.641 673.5 434.241 674.1C434.841 674.7 435.641 675.167 436.641 675.5C437.641 675.767 438.875 676 440.341 676.2L439.041 684ZM466.385 684C460.652 683.867 456.585 682.633 454.185 680.3C451.785 677.967 450.585 674.333 450.585 669.4V607L459.885 605.4V667.9C459.885 669.433 460.018 670.7 460.285 671.7C460.552 672.7 460.985 673.5 461.585 674.1C462.185 674.7 462.985 675.167 463.985 675.5C464.985 675.767 466.218 676 467.685 676.2L466.385 684ZM475.229 657.1C475.229 652.5 475.896 648.5 477.229 645.1C478.562 641.633 480.329 638.767 482.529 636.5C484.729 634.233 487.262 632.533 490.129 631.4C492.996 630.267 495.929 629.7 498.929 629.7C505.929 629.7 511.296 631.9 515.029 636.3C518.762 640.633 520.629 647.267 520.629 656.2C520.629 656.6 520.629 657.133 520.629 657.8C520.629 658.4 520.596 658.967 520.529 659.5H484.929C485.329 664.9 486.896 669 489.629 671.8C492.362 674.6 496.629 676 502.429 676C505.696 676 508.429 675.733 510.629 675.2C512.896 674.6 514.596 674.033 515.729 673.5L517.029 681.3C515.896 681.9 513.896 682.533 511.029 683.2C508.229 683.867 505.029 684.2 501.429 684.2C496.896 684.2 492.962 683.533 489.629 682.2C486.362 680.8 483.662 678.9 481.529 676.5C479.396 674.1 477.796 671.267 476.729 668C475.729 664.667 475.229 661.033 475.229 657.1ZM510.929 652C510.996 647.8 509.929 644.367 507.729 641.7C505.596 638.967 502.629 637.6 498.829 637.6C496.696 637.6 494.796 638.033 493.129 638.9C491.529 639.7 490.162 640.767 489.029 642.1C487.896 643.433 486.996 644.967 486.329 646.7C485.729 648.433 485.329 650.2 485.129 652H510.929ZM556.588 684.2C552.388 684.2 548.688 683.533 545.488 682.2C542.355 680.867 539.688 679 537.488 676.6C535.355 674.2 533.755 671.367 532.688 668.1C531.622 664.767 531.088 661.1 531.088 657.1C531.088 653.1 531.655 649.433 532.788 646.1C533.988 642.767 535.655 639.9 537.788 637.5C539.922 635.033 542.522 633.133 545.588 631.8C548.722 630.4 552.188 629.7 555.988 629.7C558.322 629.7 560.655 629.9 562.988 630.3C565.322 630.7 567.555 631.333 569.688 632.2L567.588 640.1C566.188 639.433 564.555 638.9 562.688 638.5C560.888 638.1 558.955 637.9 556.888 637.9C551.688 637.9 547.688 639.533 544.888 642.8C542.155 646.067 540.788 650.833 540.788 657.1C540.788 659.9 541.088 662.467 541.688 664.8C542.355 667.133 543.355 669.133 544.688 670.8C546.088 672.467 547.855 673.767 549.988 674.7C552.122 675.567 554.722 676 557.788 676C560.255 676 562.488 675.767 564.488 675.3C566.488 674.833 568.055 674.333 569.188 673.8L570.488 681.6C569.955 681.933 569.188 682.267 568.188 682.6C567.188 682.867 566.055 683.1 564.788 683.3C563.522 683.567 562.155 683.767 560.688 683.9C559.288 684.1 557.922 684.2 556.588 684.2ZM589.173 631H608.873V638.8H589.173V662.8C589.173 665.4 589.373 667.567 589.773 669.3C590.173 670.967 590.773 672.3 591.573 673.3C592.373 674.233 593.373 674.9 594.573 675.3C595.773 675.7 597.173 675.9 598.773 675.9C601.573 675.9 603.806 675.6 605.473 675C607.206 674.333 608.406 673.867 609.073 673.6L610.873 681.3C609.939 681.767 608.306 682.333 605.973 683C603.639 683.733 600.973 684.1 597.973 684.1C594.439 684.1 591.506 683.667 589.173 682.8C586.906 681.867 585.073 680.5 583.673 678.7C582.273 676.9 581.273 674.7 580.673 672.1C580.139 669.433 579.873 666.367 579.873 662.9V616.5L589.173 614.9V631ZM630.007 683H620.707V631H630.007V683ZM625.307 621.6C623.64 621.6 622.207 621.067 621.007 620C619.874 618.867 619.307 617.367 619.307 615.5C619.307 613.633 619.874 612.167 621.007 611.1C622.207 609.967 623.64 609.4 625.307 609.4C626.974 609.4 628.374 609.967 629.507 611.1C630.707 612.167 631.307 613.633 631.307 615.5C631.307 617.367 630.707 618.867 629.507 620C628.374 621.067 626.974 621.6 625.307 621.6ZM686.6 631C684 640.733 680.933 650.067 677.4 659C673.933 667.933 670.567 675.933 667.3 683H658.9C655.633 675.933 652.233 667.933 648.7 659C645.233 650.067 642.2 640.733 639.6 631H649.6C650.4 634.267 651.333 637.767 652.4 641.5C653.533 645.167 654.7 648.833 655.9 652.5C657.167 656.1 658.433 659.6 659.7 663C660.967 666.4 662.167 669.433 663.3 672.1C664.433 669.433 665.633 666.4 666.9 663C668.167 659.6 669.4 656.1 670.6 652.5C671.867 648.833 673.033 645.167 674.1 641.5C675.233 637.767 676.2 634.267 677 631H686.6ZM691.928 657.1C691.928 652.5 692.595 648.5 693.928 645.1C695.261 641.633 697.028 638.767 699.228 636.5C701.428 634.233 703.961 632.533 706.828 631.4C709.695 630.267 712.628 629.7 715.628 629.7C722.628 629.7 727.995 631.9 731.728 636.3C735.461 640.633 737.328 647.267 737.328 656.2C737.328 656.6 737.328 657.133 737.328 657.8C737.328 658.4 737.295 658.967 737.228 659.5H701.628C702.028 664.9 703.595 669 706.328 671.8C709.061 674.6 713.328 676 719.128 676C722.395 676 725.128 675.733 727.328 675.2C729.595 674.6 731.295 674.033 732.428 673.5L733.728 681.3C732.595 681.9 730.595 682.533 727.728 683.2C724.928 683.867 721.728 684.2 718.128 684.2C713.595 684.2 709.661 683.533 706.328 682.2C703.061 680.8 700.361 678.9 698.228 676.5C696.095 674.1 694.495 671.267 693.428 668C692.428 664.667 691.928 661.033 691.928 657.1ZM727.628 652C727.695 647.8 726.628 644.367 724.428 641.7C722.295 638.967 719.328 637.6 715.528 637.6C713.395 637.6 711.495 638.033 709.828 638.9C708.228 639.7 706.861 640.767 705.728 642.1C704.595 643.433 703.695 644.967 703.028 646.7C702.428 648.433 702.028 650.2 701.828 652H727.628ZM761.688 677.6C761.688 679.4 761.088 680.967 759.888 682.3C758.688 683.633 757.054 684.3 754.988 684.3C752.921 684.3 751.288 683.633 750.088 682.3C748.888 680.967 748.288 679.4 748.288 677.6C748.288 675.8 748.888 674.233 750.088 672.9C751.288 671.567 752.921 670.9 754.988 670.9C757.054 670.9 758.688 671.567 759.888 672.9C761.088 674.233 761.688 675.8 761.688 677.6ZM402.796 746H422.496V753.8H402.796V777.8C402.796 780.4 402.996 782.567 403.396 784.3C403.796 785.967 404.396 787.3 405.196 788.3C405.996 789.233 406.996 789.9 408.196 790.3C409.396 790.7 410.796 790.9 412.396 790.9C415.196 790.9 417.429 790.6 419.096 790C420.829 789.333 422.029 788.867 422.696 788.6L424.496 796.3C423.562 796.767 421.929 797.333 419.596 798C417.262 798.733 414.596 799.1 411.596 799.1C408.062 799.1 405.129 798.667 402.796 797.8C400.529 796.867 398.696 795.5 397.296 793.7C395.896 791.9 394.896 789.7 394.296 787.1C393.762 784.433 393.496 781.367 393.496 777.9V731.5L402.796 729.9V746ZM478.863 772C478.863 776.133 478.263 779.867 477.063 783.2C475.863 786.533 474.163 789.4 471.963 791.8C469.83 794.2 467.263 796.067 464.263 797.4C461.263 798.667 457.996 799.3 454.463 799.3C450.93 799.3 447.663 798.667 444.663 797.4C441.663 796.067 439.063 794.2 436.863 791.8C434.73 789.4 433.063 786.533 431.863 783.2C430.663 779.867 430.063 776.133 430.063 772C430.063 767.933 430.663 764.233 431.863 760.9C433.063 757.5 434.73 754.6 436.863 752.2C439.063 749.8 441.663 747.967 444.663 746.7C447.663 745.367 450.93 744.7 454.463 744.7C457.996 744.7 461.263 745.367 464.263 746.7C467.263 747.967 469.83 749.8 471.963 752.2C474.163 754.6 475.863 757.5 477.063 760.9C478.263 764.233 478.863 767.933 478.863 772ZM469.163 772C469.163 766.133 467.83 761.5 465.163 758.1C462.563 754.633 458.996 752.9 454.463 752.9C449.93 752.9 446.33 754.633 443.663 758.1C441.063 761.5 439.763 766.133 439.763 772C439.763 777.867 441.063 782.533 443.663 786C446.33 789.4 449.93 791.1 454.463 791.1C458.996 791.1 462.563 789.4 465.163 786C467.83 782.533 469.163 777.867 469.163 772ZM537.847 772C537.847 776.133 537.247 779.867 536.047 783.2C534.847 786.533 533.147 789.4 530.947 791.8C528.814 794.2 526.247 796.067 523.247 797.4C520.247 798.667 516.981 799.3 513.447 799.3C509.914 799.3 506.647 798.667 503.647 797.4C500.647 796.067 498.047 794.2 495.847 791.8C493.714 789.4 492.047 786.533 490.847 783.2C489.647 779.867 489.047 776.133 489.047 772C489.047 767.933 489.647 764.233 490.847 760.9C492.047 757.5 493.714 754.6 495.847 752.2C498.047 749.8 500.647 747.967 503.647 746.7C506.647 745.367 509.914 744.7 513.447 744.7C516.981 744.7 520.247 745.367 523.247 746.7C526.247 747.967 528.814 749.8 530.947 752.2C533.147 754.6 534.847 757.5 536.047 760.9C537.247 764.233 537.847 767.933 537.847 772ZM528.147 772C528.147 766.133 526.814 761.5 524.147 758.1C521.547 754.633 517.981 752.9 513.447 752.9C508.914 752.9 505.314 754.633 502.647 758.1C500.047 761.5 498.747 766.133 498.747 772C498.747 777.867 500.047 782.533 502.647 786C505.314 789.4 508.914 791.1 513.447 791.1C517.981 791.1 521.547 789.4 524.147 786C526.814 782.533 528.147 777.867 528.147 772ZM566.532 799C560.798 798.867 556.732 797.633 554.332 795.3C551.932 792.967 550.732 789.333 550.732 784.4V722L560.032 720.4V782.9C560.032 784.433 560.165 785.7 560.432 786.7C560.698 787.7 561.132 788.5 561.732 789.1C562.332 789.7 563.132 790.167 564.132 790.5C565.132 790.767 566.365 791 567.832 791.2L566.532 799ZM590.375 791.3C594.175 791.3 596.975 790.8 598.775 789.8C600.642 788.8 601.575 787.2 601.575 785C601.575 782.733 600.675 780.933 598.875 779.6C597.075 778.267 594.109 776.767 589.975 775.1C587.975 774.3 586.042 773.5 584.175 772.7C582.375 771.833 580.809 770.833 579.475 769.7C578.142 768.567 577.075 767.2 576.275 765.6C575.475 764 575.075 762.033 575.075 759.7C575.075 755.1 576.775 751.467 580.175 748.8C583.575 746.067 588.209 744.7 594.075 744.7C595.542 744.7 597.009 744.8 598.475 745C599.942 745.133 601.309 745.333 602.575 745.6C603.842 745.8 604.942 746.033 605.875 746.3C606.875 746.567 607.642 746.8 608.175 747L606.475 755C605.475 754.467 603.909 753.933 601.775 753.4C599.642 752.8 597.075 752.5 594.075 752.5C591.475 752.5 589.209 753.033 587.275 754.1C585.342 755.1 584.375 756.7 584.375 758.9C584.375 760.033 584.575 761.033 584.975 761.9C585.442 762.767 586.109 763.567 586.975 764.3C587.909 764.967 589.042 765.6 590.375 766.2C591.709 766.8 593.309 767.433 595.175 768.1C597.642 769.033 599.842 769.967 601.775 770.9C603.709 771.767 605.342 772.8 606.675 774C608.075 775.2 609.142 776.667 609.875 778.4C610.609 780.067 610.975 782.133 610.975 784.6C610.975 789.4 609.175 793.033 605.575 795.5C602.042 797.967 596.975 799.2 590.375 799.2C585.775 799.2 582.175 798.8 579.575 798C576.975 797.267 575.209 796.7 574.275 796.3L575.975 788.3C577.042 788.7 578.742 789.3 581.075 790.1C583.409 790.9 586.509 791.3 590.375 791.3Z" fill="url(#paint4_linear_3_10)"/>
<defs>
<linearGradient id="paint0_linear_3_10" x1="514" y1="106.604" x2="185.822" y2="126.902" gradientUnits="userSpaceOnUse">
<stop stop-color="white" stop-opacity="0.19"/>
<stop offset="0.452752" stop-color="#FEFEFF"/>
<stop offset="0.916567" stop-color="#FEFEFF"/>
<stop offset="0.916667" stop-color="#FEFEFF"/>
</linearGradient>
<linearGradient id="paint1_linear_3_10" x1="700.241" y1="290.353" x2="433.436" y2="335.745" gradientUnits="userSpaceOnUse">
<stop stop-color="white" stop-opacity="0.19"/>
<stop offset="0.452752" stop-color="#FEFEFF"/>
<stop offset="0.916567" stop-color="#FEFEFF"/>
<stop offset="0.916667" stop-color="#FEFEFF"/>
</linearGradient>
<linearGradient id="paint2_linear_3_10" x1="700.241" y1="382.735" x2="430.336" y2="418.058" gradientUnits="userSpaceOnUse">
<stop stop-color="white" stop-opacity="0.19"/>
<stop offset="0.452752" stop-color="#FEFEFF"/>
<stop offset="0.916567" stop-color="#FEFEFF"/>
<stop offset="0.916667" stop-color="#FEFEFF"/>
</linearGradient>
<linearGradient id="paint3_linear_3_10" x1="700.241" y1="149.882" x2="430.336" y2="185.204" gradientUnits="userSpaceOnUse">
<stop stop-color="white" stop-opacity="0.19"/>
<stop offset="0.452752" stop-color="#FEFEFF"/>
<stop offset="0.916567" stop-color="#FEFEFF"/>
<stop offset="0.916667" stop-color="#FEFEFF"/>
</linearGradient>
<linearGradient id="paint4_linear_3_10" x1="819" y1="553.5" x2="120.5" y2="745.5" gradientUnits="userSpaceOnUse">
<stop stop-color="#FDFDFD" stop-opacity="0.17"/>
<stop offset="0.301554" stop-color="#FEFEFE" stop-opacity="0.85"/>
<stop offset="1" stop-color="white"/>
</linearGradient>
</defs>
</svg>
