<svg xmlns="http://www.w3.org/2000/svg" xmlns:xlink="http://www.w3.org/1999/xlink" viewBox="0 0 1920 1080"><defs><style>.cls-1{fill:url(#radial-gradient);}.cls-2{font-size:327.52px;fill:#0c6032;font-family:LucidaHandwriting-Italic, Lucida Handwriting;font-style:italic;}.cls-3{fill:#181448;}.cls-4{fill:#fff;}</style><radialGradient id="radial-gradient" cx="892.24" cy="540.98" r="381.23" gradientUnits="userSpaceOnUse"><stop offset="0" stop-color="#fff"/><stop offset="1" stop-color="#bfe5e3"/></radialGradient></defs><g id="Layer_1" data-name="Layer 1"><path class="cls-1" d="M1228.77,776c-13.28-9.09-37.56-27.92-40.28-30.3A250.11,250.11,0,0,1,1145.06,696c-34.84-52.58-48.62-118.58-38.39-180.82C1120,434,1175.14,353.66,1254.62,325.68,1184,217,1061.58,145,922.3,145c-218.68,0-396,177.28-396,396s177.28,396,396,396c128.52,0,242.7-61.25,315-156.13C1237,781.32,1233.59,779.3,1228.77,776Z"/><path d="M1226.66,768.77C1123.44,892.6,940.84,947,777.79,883.92c-170.57-63.64-275.51-239-236.92-419.5,48.89-231.51,306.82-354,522.86-270.89a381.54,381.54,0,0,1,184.92,145.6c.78-.5,1.55-1,2.35-1.48a49.14,49.14,0,0,1,10.7-4.72,83.81,83.81,0,0,1,20.56-3.05c-57-105.78-156-187.84-277.88-212.93C803.22,73.49,605.49,189.25,533.2,379.57c-95.1,241.34,43.23,531.35,302.51,585.61,180,37.92,345.15-48.17,433.07-189.7C1254.33,777.09,1238.91,775.14,1226.66,768.77Z"/><path d="M1309.59,391.22a34.36,34.36,0,0,1-24.84,16.45q1.93,4.88,3.74,9.81a95,95,0,0,1,27.62-4.58h.63Q1313.44,402,1309.59,391.22Z"/><text class="cls-2" transform="translate(642.62 549.04)">AI</text><path class="cls-3" d="M656.56,638.08q4.07,0,6.93.21c1.91.14,3.67.34,5.28.62a49.16,49.16,0,0,1,5,1.16l-1,9.3c-1.82-.11-3.5-.19-5-.25s-3.16-.09-4.9-.12-3.83,0-6.27,0a11.34,11.34,0,0,0-6.6,1.66q-2.37,1.67-3.36,5.77a64.74,64.74,0,0,0,0,22.67c.66,2.74,1.78,4.67,3.36,5.77a11.34,11.34,0,0,0,6.6,1.66q5.73,0,9.63-.16c2.6-.11,5.18-.31,7.73-.58l1.08,9.3a48.25,48.25,0,0,1-8.14,1.78,82,82,0,0,1-10.3.54q-8.88,0-14.24-2.86a16.49,16.49,0,0,1-7.72-9.35q-2.37-6.46-2.37-17.43t2.37-17.44a16.46,16.46,0,0,1,7.72-9.34Q647.67,638.08,656.56,638.08Z"/><path class="cls-3" d="M705,637.91a39.75,39.75,0,0,1,11.55,1.46,15.81,15.81,0,0,1,7.59,4.81,21.32,21.32,0,0,1,4.2,9.14,78.67,78.67,0,0,1,0,28.81,21.27,21.27,0,0,1-4.2,9.14,15.74,15.74,0,0,1-7.59,4.81,46.38,46.38,0,0,1-23.09,0,16,16,0,0,1-7.64-4.81,20.83,20.83,0,0,1-4.23-9.14,78.67,78.67,0,0,1,0-28.81,20.89,20.89,0,0,1,4.23-9.14,16.06,16.06,0,0,1,7.64-4.81A39.68,39.68,0,0,1,705,637.91ZM705,648a11.61,11.61,0,0,0-6.85,1.75q-2.45,1.74-3.49,6a70.13,70.13,0,0,0,0,23.95q1.05,4.32,3.49,6.07a11.68,11.68,0,0,0,6.85,1.74,11.52,11.52,0,0,0,6.77-1.74c1.63-1.17,2.8-3.19,3.49-6.07a69.46,69.46,0,0,0,0-23.95c-.69-2.85-1.86-4.86-3.49-6A11.44,11.44,0,0,0,705,648Z"/><path class="cls-3" d="M751.81,639.08v42.85a4.07,4.07,0,0,0,1.16,3.15,4.69,4.69,0,0,0,3.32,1.08h20l.59,9.55q-5.91.66-12.34.79t-12.83.12q-6.22,0-9.42-3.36a12,12,0,0,1-3.2-8.59V639.08Z"/><path class="cls-3" d="M796.32,639.08v42.85a4.07,4.07,0,0,0,1.16,3.15,4.69,4.69,0,0,0,3.32,1.08h20l.59,9.55q-5.91.66-12.34.79t-12.83.12q-6.22,0-9.42-3.36a12,12,0,0,1-3.2-8.59V639.08Z"/><path class="cls-3" d="M840.08,638.83q4.65,0,9.38,0t9.3.21q4.57.17,8.56.58l-.58,9.22h-22a4.12,4.12,0,0,0-3.11,1.08,4.32,4.32,0,0,0-1,3.15v29.23a4.35,4.35,0,0,0,1,3.16,4.12,4.12,0,0,0,3.11,1.08h22l.58,9.21q-4,.35-8.56.54t-9.3.25q-4.73,0-9.38,0a12.3,12.3,0,0,1-8.84-3.19,11,11,0,0,1-3.37-8.35V650.37a11,11,0,0,1,3.37-8.39A12.41,12.41,0,0,1,840.08,638.83Zm-10.71,23.25h34.29v9H829.37Z"/><path class="cls-3" d="M898.12,638.08q4.08,0,6.94.21c1.91.14,3.67.34,5.27.62a47.94,47.94,0,0,1,5,1.16l-1,9.3c-1.83-.11-3.5-.19-5-.25s-3.15-.09-4.9-.12-3.83,0-6.27,0a11.34,11.34,0,0,0-6.6,1.66c-1.57,1.11-2.7,3-3.36,5.77a64.74,64.74,0,0,0,0,22.67c.66,2.74,1.79,4.67,3.36,5.77a11.34,11.34,0,0,0,6.6,1.66q5.73,0,9.64-.16c2.6-.11,5.17-.31,7.72-.58l1.08,9.3a48,48,0,0,1-8.14,1.78,82,82,0,0,1-10.3.54q-8.88,0-14.24-2.86a16.52,16.52,0,0,1-7.72-9.35q-2.37-6.46-2.37-17.43t2.37-17.44a16.5,16.5,0,0,1,7.72-9.34Q889.24,638.08,898.12,638.08Z"/><path class="cls-3" d="M967.38,639.08v10H920.21v-10Zm-17.27,0v57.3H937.4v-57.3Z"/><path class="cls-3" d="M987.23,639.08v57.3H974.6v-57.3Z"/><path class="cls-3" d="M1045.52,639.08l-15.61,53.81a4.93,4.93,0,0,1-1.62,2.49,4.38,4.38,0,0,1-2.87,1H1013.8a4.5,4.5,0,0,1-2.95-1,4.43,4.43,0,0,1-1.53-2.49l-15.7-53.81h13.12l10.46,41.35c.22,1.05.46,2.12.71,3.2s.46,2.14.62,3.2h2.16c.17-1.06.38-2.14.62-3.24s.52-2.19.79-3.24l10.38-41.27Z"/><path class="cls-3" d="M1063.71,638.83q4.65,0,9.38,0t9.3.21q4.58.17,8.55.58l-.58,9.22h-22a4.15,4.15,0,0,0-3.12,1.08,4.36,4.36,0,0,0-1,3.15v29.23a4.39,4.39,0,0,0,1,3.16,4.15,4.15,0,0,0,3.12,1.08h22l.58,9.21q-4,.35-8.55.54t-9.3.25q-4.72,0-9.38,0a12.33,12.33,0,0,1-8.85-3.19,11,11,0,0,1-3.36-8.35V650.37a11,11,0,0,1,3.36-8.39A12.43,12.43,0,0,1,1063.71,638.83ZM1053,662.08h34.29v9H1053Z"/><path class="cls-3" d="M787.71,724.11v9H740.55v-9Zm-17.27,0v51.56h-12.7V724.11Z"/><path class="cls-3" d="M819,723.06a43.92,43.92,0,0,1,11.54,1.31,16.12,16.12,0,0,1,7.6,4.33,18.38,18.38,0,0,1,4.2,8.22,63.86,63.86,0,0,1,0,25.93,18.28,18.28,0,0,1-4.2,8.22,16,16,0,0,1-7.6,4.34,51.87,51.87,0,0,1-23.08,0,16.33,16.33,0,0,1-7.64-4.34,18,18,0,0,1-4.24-8.22,64.33,64.33,0,0,1,0-25.93,18.12,18.12,0,0,1,4.24-8.22,16.4,16.4,0,0,1,7.64-4.33A43.92,43.92,0,0,1,819,723.06Zm0,9a12.72,12.72,0,0,0-6.85,1.57,8.83,8.83,0,0,0-3.49,5.42,56.93,56.93,0,0,0,0,21.56,8.82,8.82,0,0,0,3.49,5.45,12.63,12.63,0,0,0,6.85,1.57,12.45,12.45,0,0,0,6.77-1.57,8.86,8.86,0,0,0,3.49-5.45,56.39,56.39,0,0,0,0-21.56,8.87,8.87,0,0,0-3.49-5.42A12.54,12.54,0,0,0,819,732.1Z"/><path class="cls-3" d="M878.23,723.06a43.92,43.92,0,0,1,11.54,1.31,16.12,16.12,0,0,1,7.6,4.33,18.27,18.27,0,0,1,4.19,8.22,63.86,63.86,0,0,1,0,25.93,18.17,18.17,0,0,1-4.19,8.22,16,16,0,0,1-7.6,4.34,51.87,51.87,0,0,1-23.08,0,16.28,16.28,0,0,1-7.64-4.34,18,18,0,0,1-4.24-8.22,63.86,63.86,0,0,1,0-25.93,18.12,18.12,0,0,1,4.24-8.22,16.35,16.35,0,0,1,7.64-4.33A43.92,43.92,0,0,1,878.23,723.06Zm0,9a12.7,12.7,0,0,0-6.85,1.57,8.78,8.78,0,0,0-3.49,5.42,56.39,56.39,0,0,0,0,21.56,8.77,8.77,0,0,0,3.49,5.45,12.61,12.61,0,0,0,6.85,1.57A12.47,12.47,0,0,0,885,766.1a8.81,8.81,0,0,0,3.48-5.45,56.39,56.39,0,0,0,0-21.56,8.82,8.82,0,0,0-3.48-5.42A12.56,12.56,0,0,0,878.23,732.1Z"/><path class="cls-3" d="M927.14,724.11v38.56a3.52,3.52,0,0,0,1.16,2.84,5.09,5.09,0,0,0,3.32,1h20l.58,8.59q-5.9.6-12.33.71t-12.83.11q-6.24,0-9.43-3a10.2,10.2,0,0,1-3.2-7.74v-41Z"/><path class="cls-3" d="M980.12,723.14c2.82,0,5.9.13,9.22.41a54,54,0,0,1,9.71,1.68l-.83,7.55-8.55-.15q-4.9-.07-9.63-.08c-1.55,0-2.87,0-3.95.11a7.28,7.28,0,0,0-2.61.6,2.84,2.84,0,0,0-1.42,1.46,7.16,7.16,0,0,0-.41,2.69,4.82,4.82,0,0,0,1.37,3.81,12.84,12.84,0,0,0,4.69,2.17l11,3.21q6.88,2.1,9.55,5.68t2.65,9.42A20,20,0,0,1,999.8,769a9.61,9.61,0,0,1-3.65,4.56,17.32,17.32,0,0,1-6.56,2.35,59.67,59.67,0,0,1-10,.71c-1.88,0-4.57-.11-8-.34a90.46,90.46,0,0,1-12-1.68l.83-8.07q4.89.08,8.51.19t6.19.15c1.71,0,3.21,0,4.48,0a27.73,27.73,0,0,0,5.19-.38,3.91,3.91,0,0,0,2.62-1.49,5.88,5.88,0,0,0,.74-3.22,6.47,6.47,0,0,0-.54-2.87,3.91,3.91,0,0,0-1.74-1.72,15.41,15.41,0,0,0-3.28-1.16L971,752.5q-6.56-2.16-9.3-5.68a14.68,14.68,0,0,1-2.74-9.26,18.54,18.54,0,0,1,1.21-7.29,9.38,9.38,0,0,1,3.73-4.37,17.21,17.21,0,0,1,6.57-2.17A68.28,68.28,0,0,1,980.12,723.14Z"/></g><g id="Layer_2" data-name="Layer 2"><path class="cls-4" d="M1512.85,560.67l-5.11-6.67c-8.2-10.69-16.68-21.74-17.15-30.56,0-.43,0-2.15,1.4-5.86l.1-.3a135.91,135.91,0,0,0,6.09-67,131.31,131.31,0,0,0-27.35-62.14l-.1-.13c-29.56-36-70.39-50.3-106.44-59.54l-.44-.11-8.93-1.95-.85-.12a280.18,280.18,0,0,0-40.85-3.23c-52,0-81.31,18.08-112.37,37.22l-4.66,2.86c-4.47,2.46-20.62,12.1-36.8,31-23.75,27.7-36.19,60.43-37,97.28-.71,32.78,10.46,63.23,34.16,93.11,7.07,8.92,14.86,17,22.39,24.89,5,5.27,9.87,10.3,14.31,15.38,1.58,6-.34,13.21-3.63,24.51-2.4,8.23-5.11,17.56-5.89,27.7l49.39,7.08c.44-2.11,1-4.23,1.59-6.38,1.14-11.3,4-22.41,7.06-33.35,1.71-6.24,3.53-12.48,4.85-18.81,0-.2.56-3.21.55-3.18.27-1.68.51-3.36.71-5,.36-3.12.53-6.25.59-9.38l-2.69-3.26c-7.82-9.49-16.24-18.44-24.39-27.1-24-25.46-44.64-47.45-46.1-75.8l0-.83-.1-.83c-4-34.08,14.31-70,45.67-89.35l1.37-.84,1.25-1a180.42,180.42,0,0,1,50.33-26.44,123.7,123.7,0,0,1,38.74-6.53,101.33,101.33,0,0,1,18.49,1.67c2.82.53,5.79.91,8.94,1.32s6.71.86,9.39,1.41l.36.07,5.79,1c29,7.07,66.24,21.66,80.57,51.2l.64,1.32.79,1.23c12.8,20,10.3,54.16,1.44,76.09l-1.88,4.67.06,5c.24,17.75,6.61,32.3,14.24,44.66-13.25,9.82-19.09,26.78-15.67,43.25a25,25,0,0,0-4.19,12.5,24.68,24.68,0,0,0,.1,4.22c-6.67,8.81-5.95,19-5.61,21.77l.06.51.08.51a38,38,0,0,0,4.54,12.56c-6.84-.78-16.2-2.4-24.15-3.77-14-2.42-27.26-4.71-36.73-4.71-2.84,0-9.86,0-16.8,3.52-8.87,3.34-21,11.21-26.4,29.66-2.88,9.87-3.08,20.13-3.25,29.19-.06,2.89-.11,5.64-.25,8a90.05,90.05,0,0,0-.18,16.72,58.5,58.5,0,0,1,.13,7.75l-1.5,26.42h51.06l1.22-23.72c.19-3.79.34-7.95.5-12.34.28-8.12.8-22.83,2-32.16,1,.16,2.06.35,3.07.53,2.52.44,5.13.91,7.87,1.22,8.93,1,16.66,2.51,23.48,3.8,9.14,1.73,17,3.22,25,3.22,28.82,0,41.08-20.36,47.8-35.68l.39-.89.32-.92a39.55,39.55,0,0,0-.5-27.89,30.93,30.93,0,0,0,4.29-11.76,32,32,0,0,0,.16-8,47.1,47.1,0,0,0,2.12-5.13,27.66,27.66,0,0,0,1.58-15,39,39,0,0,0,6.11-2.93c10.23-6.06,16.29-16.25,17.07-28.69l.19-3Z"/><path class="cls-3" d="M1493.16,575.68l0,.35c-.72,11.52-10.11,13.13-17,14.3-3,.52-5.87,1-8,2.09a11.19,11.19,0,0,0-2.39,11.08l.18.56,0,.59c0,.8.78,1.87,1.67,3,1.52,2,3.81,4.92,2.1,8.65-1.53,4.76-3.66,7.4-5.67,8.85,1.51,2.56,2.71,5.64,2.24,8.8a9.72,9.72,0,0,1-4.13,6.49l-.47.34-.56.15c-4.73,1.23-5.21,2.36-5.22,2.38-.27.71,1.6,3.51,2.72,5.18,3.38,5.07,8,12,4.86,21.07l0,.11,0,.1c-7.11,16.21-14.86,22.52-27.65,22.52-5.89,0-12.51-1.25-20.9-2.84-7.18-1.36-15.31-2.9-25-4-2.1-.24-4.28-.63-6.59-1a71,71,0,0,0-12-1.44c-4.47,0-7.74,1-10.31,3l-.38.31-.46.17c-.83.3-3.69,2.42-5.6,17-1.32,10-1.76,22.49-2.15,33.49-.15,4.31-.3,8.38-.48,12l-.15,2.84h-6.87l.18-3.17a79.86,79.86,0,0,0-.15-10.4,69.91,69.91,0,0,1,.15-13.48c.19-3,.26-6.12.32-9.44.32-16.15.68-34.42,16.81-39.16,1.55-1.13,4-1.64,7.65-1.64,7.58,0,19.92,2.13,33,4.39s26.34,4.55,34.28,4.55a15,15,0,0,0,4.92-.55c6.15-2.86,11.13-9.83,13.77-15.45,2.27-5.85-.08-9-3.06-13.07-2-2.66-4.2-5.68-4.84-9.58l0-.12c-.81-6.44,4-8.09,6.6-9,1.66-.57,2.7-1,3.15-1.71l.14-.24.18-.2c1.14-1.29,1.06-1.94-.58-4.91-.38-.69-.79-1.44-1.15-2.24a3.88,3.88,0,0,1-2.7-3.73,3.45,3.45,0,0,1,3.74-3.16c.2,0,.4,0,.61,0,2-.87,2.6-2.5,3.75-5.8l.07-.18-.46-.45a6.69,6.69,0,0,1-2.36-3.7c-3.69-8.48-2.82-20.11,6-26.33l1-.72,1.22.22a4.54,4.54,0,0,0,.8.05,65,65,0,0,0,7.91-1c1.73-.28,3.75-.6,6.11-.95,2.74-2.26,3.21-3.48,2.85-5.67q-1.82-2.51-3.66-5c-10.67-14.51-21.7-29.51-22-49.27v-.6l.23-.56c10.85-26.86,14.44-68.41-3.3-96.18l-.1-.14-.07-.16c-18.2-37.5-62.17-55-95.89-63.15l-6.13-1.06c-3.56-.73-7.38-1.23-11.08-1.7-2.83-.37-5.5-.71-7.7-1.12a123.52,123.52,0,0,0-22.54-2.05,146,146,0,0,0-45.63,7.63,201.93,201.93,0,0,0-57.3,30.26l-.15.12-.16.1c-38.51,23.77-61,68.24-56,110.66l0,.2c1.88,36.41,26.25,62.32,52,89.74,7.91,8.4,16.09,17.09,23.45,26l.69.83v12.54l-5.41-6.84c.09,12.89-3.57,24.3-7.13,35.37a195,195,0,0,0-5.37,19l-5.93-.85c.61-7.86,2.88-15.68,5.08-23.24,4.18-14.34,8.12-27.89,1.74-42-5.55-6.6-11.71-13-17.66-19.23-7.18-7.49-14.6-15.23-21-23.34-20.65-26.05-30-51.14-29.4-79,.68-31.62,11.35-59.69,31.7-83.43,15-17.48,29.6-25.44,31.1-26.23l5.19-3.19c29.56-18.22,55.09-34,100.83-34a257.65,257.65,0,0,1,37.66,3h.1l7.85,1.72c34.24,8.77,69.43,21.16,94.9,52.18,23.7,29.26,30.63,71.6,17.65,107.87-2.08,5.6-3,10.4-2.76,14.72.82,15.64,11.42,29.45,21.66,42.8l1.84,2.4Z"/><path d="M1443.14,451.64l-3.4,3.39c-3.11-2.08,0-8.31,0-11.14,1.7-10.2-9.34-17.84-15-22.94-.56,2-4.24-1.7-5.38-2.83l1.42-2-13-11.61c.29.56-.52,0-1.13-.57l-2.83.57c1.13,1.7,3.68,2,1.41,4-2.83-.85-6.51-1.41-8.77-4.53a16,16,0,0,0-1.42-.85c-3.11-1.7,1.88-4.05-5.38-7.36-2.88-1.31-4.81-2-7.65-4.25-5.09-1.13-13-4-15.57-2,0,0-4.53-1.7-4.81-1.42a48.22,48.22,0,0,0-4.82-1.13,8.48,8.48,0,0,0-9.34-2.27c-1.7-2-10.48,0-11.61,2.27-2.27-.85-1.14-4,0-4.25-3.12,2-6.8-4-9.63,0-2.27.29-9.35.85-10.76,5.38-1.13.85-3.68-.85-4-2.55l2-3.39c-2.83-1.7-5.1-.57-8.22,1.41,0,0-7.29,6.35,1.42,4-1.13,4.53-7.93,2.26-11,6.23l-2,5.38c-.28.28,3.69,5.09-.56,5.38-2.83-4-6.51-2.27-9.63-3.4-.85-2.55,1.42-3.12,2-4.82.57,1.42,3.4,3.12,4.82,1.42.85-4.53,6.23-9.06,8.78-13-4.25-2.83-8.22-2.26-14.16-1.13.56,1.42,4.81,4.82.56,5.95-.85-.28-.56-1.13-.56-2-2.27-1.14-6.8.56-6.8.56-3.68.29-7.36-1.7-11.61,2.83-2.75,1.25-2.69,2.66-4,4-4.53,4.53-10.2-.28-15,3.4-5.67-2.55-11.61,8.21-18.41,11.61,1.7,1.13,2.55,3.68,4.82,3.4-1.14-3.4,3.39-5.67,5.38-7.37,2.26,4-1.7,5.95-1.42,10.76l-1.13.85-12.46-6.23c-2,1.42-4.82,3.4-5.38,6.23-2.83,2.55,2,3.4,4.25,4l4-4c4,.29,2.27,5.1.57,6.8a23.91,23.91,0,0,0-4,1.13c-4.53-1.13-8.49-2.26-13.59,0-7.93,5.66-17.56,16.43-18.41,24.64.85,4.81,3.68,11-1.41,15.57h-.57l-.57-8.21c-3.39,3.68-4.53,8.49-5.66,13a75.92,75.92,0,0,0,2.83,12.17s2.83,2,2.83,2.83c1.42,4.25,2,0,4-.85,1.7,5.95-1.42,12.75,5.38,17.84,3.68,2.27,12.74-2,15.57,5.95l-2,2-2-2.55c-2.83,3.4,3.11,7.37,2,10.76-5.66-2.54-4.81-7.36-7.36-11.61-4.53.29-9.35-2.83-12.18-4.53-3.4-4.81-4-13.3-10.19-17-1.7,2.27-1.42,4.82-1.42,7.93-.85,2.55,4.25,4.25,2.55,7.65,3.4,6.23,11,5.38,13.59,10.19-2.83,2.83-7.64-1.13-11.32-2.83l-3.4-3.4c-2.27,1.7-1.7,6.8-.85,11.05,5.38,4.81,10.48,12.17,18.41,10.76h2c-4.53.28-9.35-7.08-12.75-10.76l1.14-2.27c4.25,3.68,9.34,9.91,15.86,9.63a4.19,4.19,0,0,1,2-4.82c2.26,2.27,3.4,5.1,6.79,6.8,4.53-.85,9.06,3.12,12.18-2l2,2-3.4,4.25c-1.41-1.13-5.09-1.13-5.38,0,4.82,1.13,15,3.4,19.83.56a2.23,2.23,0,0,1,2.54.57s-1.41-3.11-.56-5.38l.56-.57c6.23,5.67,12.18,11,21.24,13.6,7.65-4.53,15,4.53,22.37-4.25,2.55-.57,4.53.85,6,2.83v.57c-6.23-1.7-10.2,4.53-15.58,4.81,1.42.85,3.69,4.82,6.8,5.38,11,.85,21.52.57,32,5.66,4-1.69,13.87,3.69,14.16-4.81l-7.36-5.38-4-1.42s-4.81.85-6.8-1.41c.85-2.83,4.54-4.53,6.8-2-.85-2.27,4-5.1,3.4-8.78-2-1.42-2-3.68-2.83-5.66,2,0,5.09,2.26,6.23,4.81-2,4-2,7.36-2.83,11,4.24.29,9.34,4.82,11.61,9.35,5.38.28,11,0,15.57-2,0-2-5.1-3.4-1.42-5.39,5.67,3.4,14.45,6.8,21.81,3.4,4.81-2.26,6.23-7.08,5.38-12.17-.85-1.14-2-1.14-2.55-2.27,5.66-2.55,5.95-10.19,4.53-14.72-8.21-6.8-10.76-18.69-21.52-13.6-2.83-3.68,0-6.79-4.25-9.62-5.38,6.79-11.89-1.42-18.4,0l-1.14,1.41c-3.68-2-9.91,1.13-14.44-2l-1.41,1.13c-4-3.4-6.8-7.08-7.93-12.74,0-.85-.57-2.27.56-2.83,4.53,3.68,6.52,11.61,11.61,11.61.85-2.83,2.83,0,4,.56l7.64-1.13c.29-2.83,1.42-2.83,4-4.81,4.53-1.13.85,2.83,2,4l-.57.85c2.83,2,6.52,4.25,10.2,2.55l3.4-3.4c10.47,14.44,22.08,9.91,34.54,6.8,5.1-5.38,13.31-13,8.21-21.81-2-2-4.53-6.79-5.38-10.76,5.1-.85,6.23,5.67,11.61.57l2.55.85c2,7.36-10.47,2.83-4,10.19.56,6.52,0,13.6-6.23,19-.57,3.68-9.06,6.51-13.59,8.77-1.42-2.26-8.22-1.69-7.37.85,1.42,2,4.82,8.5,9.35,10.2,8.78-.29,15.86-3.4,19.82-11.05,3.4,2.84,6.8,3.4,10.19,2,3.12-4.25,7.37-6.52,7.37-12.18-2.55-.57-4-.28-3.4-4,2.55-.85,9.06,0,9.06,0,1.42.85,8.78-3.69,7.93,2.54-1.13,1.7-4.53,2.27-4.53,2.27h-5.67c2.55,7.36-6.51,10.48-10.76,15.57-2.83-.28-5.94,1.42-8.77-.85-2,3.12-8.5,7.08-14.45,9.07h-5.94c0,.56-.85,6.51,3.4,7.36l13.59-.57c-1.42-.56-.57-2-.85-2.83,1.7.85,7.36,2.27,9.63,1.42,5.09,0,10.19-2,13-6.23-2.26-1.42-4.53.56-3.4-3.4l2-2c7.36,5.38,15.85-1.42,22.37-5.38,2.55-2.27,3.11-5.38,2.83-8.78-2.83,1.41-5.66,4.81-5.66,7.36-1.42,0-3.4,3.12-4.54,0,3.12-3.11-.85-10.76,5.38-13,1.14.85.29,2.27.57,3.4a11.51,11.51,0,0,0,7.65-8.78l-.85-9.34c-3.12.85-4,.57-6,1.13a3.86,3.86,0,0,1,0,4.25c-6.23-1.7-2.55-7.36-5.66-11.61l1.41-1.42c2.83,1.14,5.1,6.23,9.63,4.82,3.4-3.68,2-10.48,1.42-15-.41-2.44-2.71-4.73-3.77-6.67Z"/><path class="cls-4" d="M1314.86,394.33c1.14,3.4,5.38,9.63,6.8,13,.85.28.57,1.13.57,2,4.53.57,10.47,6.23,12.17,10.76,4.82,3.12-3.4,7.93,1.42,11,.85-1.69,3.4-5.09,6.23-2.83l.56.57,1.42-1.13c-2.55-5.1-6.8.85-5.38-5.67-2.55-9.34-14.44-11.89-17.84-22.93,2.83-1.42-.28-3.12,2-4.82l-.56-2C1320,395.75,1316.28,396.88,1314.86,394.33Z"/><path class="cls-4" d="M1337.8,399.15c-.57-3.4-2.83.56-4.81-1.42l-.57,2c3.68,2.55,11.13,2,13.23,7.79l.93.42c2,1.14,3.68,3.12,5.66,4.82,0,0,2.22,4.59,2.39,8.22.21,4.56-1.26,8.55,3,10.75,13.59-6.23,17.56-4.53,27.75-4.81,3.48,1.08,9.91,6.51,12.18,11,.28,1.42-1.42,4.25.85,5.38,4.53-1.7,9.91-.28,13.59,1.42,1.42,5.66,3.12,8.78,5.38,14.16.85-5.38-.57-11-4.81-16.43-1.14-1.7-.29-5.1-.57-6.79-2.26-.85-1.7,2-2.83,2.83.85.28.85,1.41.85,2-3.4,1.13-5.38-1.13-9.06-.57-.29-1.41-2-3.11-1.14-4.24-1.13-1.14-8.18-6.52-7.61-10.2-.65-1.35.41-4.14-1.65-5.14l-1.14-.4c-3.11,1.7.49,3.84-2.62,5,0,0-5.87-.4-6.44-1-3.32.42-2.06-.18-5.17.39-3.94,1-2.28-.33-6.8,2-1.13-2-10.19,6.51-10.76-1.41l.57-2.84c-1.7-7.93-6-13.87-12.74-19l-2.84-8.21C1340.35,396.31,1342.05,400.85,1337.8,399.15Z"/><path class="cls-4" d="M1267.86,400.56c9.62,4-4,10.48-.57,17,3.4-.28-.28-3.4,2.55-4.81,5.66.85,0-9.63,7.64-6.8-.56-2.26,3.12-1.13,2-3.4-4-.84-9.63.29-10.2-6.23C1267.57,397.16,1267.86,398.86,1267.86,400.56Z"/><path class="cls-4" d="M1359.6,397.73c.29,2.55,6.52,7.08,3.4,10.76-1.7,2.55-2.55,4-2,6.23-.28-.57,1.7-1.13,2-.57a8.89,8.89,0,0,1,2-4.24c3.69-4,5.1,2.55,8.22-2.55a21.22,21.22,0,0,1-6.8-2.27h0A10.46,10.46,0,0,0,1359.6,397.73Z"/><path class="cls-4" d="M1382.43,398.83l-.79,1.09.33,1.21c1.14.85,2,2.55,3.4,2.83l1.26.58c2.38,1.75,4.41,1.69,6.39,4.8-1.13,2.83,4.81,5.38,4,9.35l-.25,1.89c.85.28,1,0,1.67-.48,3.11-.85-.57-4,.56-5.38-.56-.85-1.69-1.41-1.41-2.83.56-.28.85-.85,1.41-.57,1.42-.56,7.65,0,7.65,0,.58-.49,1.61-1.41-.85-2-2.26.85-6.8,0-10.19-.85-4-6.51-7.93-2.83-12.18-8.78Z"/><path class="cls-4" d="M1301.27,411.32c-2,7.37,0,16.43,3.4,22.37l2,6.8c.28-.28,1.42,1.42,1.42,1.42.28-.29,3.39,8.49,4.53,10.76,0,2,2.26,6.23,1.41,9.06l-3.39-2.83c-3.69,2,3.11,4.24.84,6.23l.57,5.94c2.83,0,5.38-6.79,5.38-6.79-.57-2.55,1.42-5.38-1.41-7.37-2.27-6.23-2.27-10.19,2.26-17-.85.29-1.13-.28-1.42-.85-2.54,3.4-7.92-.85-9.62-3.39-3.68-4.54-6.23-16.15-4-23.79.85-2,3.68-3.68,2.55-6.8C1301.27,404.24,1303.82,408.21,1301.27,411.32Z"/><path class="cls-4" d="M1246.05,410.76c-1.41,4.24-.56,10.47,2,12.74,2.27-1.42-.56-4.53-.56-6.8,1.41-7.08,2.83-5.94,6.79-11.61C1250.58,404,1248.88,408.77,1246.05,410.76Z"/><path class="cls-4" d="M1283.43,420.1c4.25,3.68-2,6.8-3.4,8.78,3.12-.28,7.65-2.27,11.61-.57,1.14-.28,4.53,1.7,6.23,2.83l1.14-1.41c-1.14-1.42-2.1-2.5-4.74-1.83-9.21-3.19-8-8.37-8-8.37-.56-1.69-.56-3.11-2-4.24C1280.88,416.7,1284.56,419.53,1283.43,420.1Z"/><path class="cls-4" d="M1317.41,418.69l-4,5.66,2.55,2c2.54-2.26,5.09,2.27,6.23,2,4,4.53,5.66,8.78,4.81,14.16l1.41,1.42c2.55.56.29-4.82,2-6.8-.57-2.83-2-4.53-4.25-7.36,1.42-1.42-1.13-2.83-2-4.25h-2a13.67,13.67,0,0,1-1.42-.56c-6.51-2.84,4.81-5.67-2.55-8.22l-1.42,1.42Z"/><path class="cls-4" d="M1257.66,422.08c.57.29,2.83.57,3.4.85,1.7.85,1.42,2.55,1.42,4,.56,4-6.5,3.18-6.23,6.45l.75,1c1.84.05,5.1-4,8-2,6.13,12.1,20.39,17.84,20.39,17.84l1.42,1.41c.28,1.42,3.68,4.82,1.41,7.93-.84,4-2.69,10-1.8,15.25l-1.59-.24c-.85-1.13-9.63-2.55-9.63-2.55-9.63-5.1-.85-5.95-5.38-13l-2-2c-2,4,2.83,6.8-2,10.76l1.42,1.42a9.16,9.16,0,0,1-5.66,2c-.29,1.13,1.13,1.42,1.41,2,2.55,1.14,2.27-1.13,5.38-.56.85-2.27,4.25,1.41,5.67,2,4.24,4.81,15.29-1.13,19.53,7.65,7.08,2.83,5.39-.29,12.18,0-.85-2.27.57-2.55-2-4.25,0,2-2.27,2-3.4,2.83a22.59,22.59,0,0,1-8.21-2.83c-2-4.25-3.48-1.16-3.76-6.26l1.78-6.48c-.85-4,1.77-6.32,1.23-11.19l.75-1.84c-1.42-1.13,6.51-2.83,2.83-6.23-2.55-1.42-5.38,6.92-8.78,1.26-2.83.5-4.81-4.09-6.23-3.24-4-.29-12.74-11.61-12.74-11.61-3.4-3.12-2.55-7.08-.85-10.76-1.42.85-4.81-1.14-6.8-3.4C1257.1,418.12,1259.36,421.23,1257.66,422.08Z"/><path class="cls-4" d="M1420.2,432.28c4.53-1.14,8.21,5.66,11.33,9.06l-.57,2h2.83c1.14-7.64-13.3-10.48-9.62-18.4l-2.84-2.84C1422.47,425.76,1421.9,428.88,1420.2,432.28Z"/><path class="cls-4" d="M1239.26,428.88c-.29-.85-1.14-.57-2-.57,1.7,1.7-2.54,3.68-.56,5.38-4.82,2.84-6.52-2.55-11,.85,1.14,2.55,4.53.29,6.23,2,3.55-.14,4.82,4.24,7.37,1.41-1.7-3.11,1.13-7.08,0-8.21Z"/><path class="cls-4" d="M1209.52,433.13c2,4-4.24,1.41-4.24,1.41-.29,2.55-5.38,3.12-4.82,6.8,0,0-2.26,4.81.85,6.8a14.72,14.72,0,0,1,4.82-10.2c1.69.28,5.38-.57,6.79-2.26-2.26-2.55,4-4,0-5.95Z"/><path class="cls-4" d="M1382,437.94l1.42,1.13-.57-2.54C1382.82,437.09,1382.26,437.37,1382,437.94Z"/><path class="cls-4" d="M1372.63,449.27c.85-1.13,2.55-.29,3.4.85.56.85,3.4,4,3.4,4-.51,2-.34,2.6.56,2.83,2.27-.85,1.13-3.11,1.42-4.81-1.13-1.42-3.12-2.55-3.4-4,2,.56,4-2.27,6-4.25l-1.14-2C1379.43,446.44,1372.63,442.19,1372.63,449.27Z"/><path class="cls-4" d="M1245.49,464.28c.28-.29,4.81-.57,5.94,2.83.57-.29.85-.85,1.42-.85-1.42-4-6.23-4.25-8.21-6.8-6.23-3.68,1.41-12.74-4-17C1236.71,450.4,1242.09,460.31,1245.49,464.28Z"/><path class="cls-4" d="M1426.15,450.12l-6.8,8.21c2.55,1.42,4.82-1.42,7.65-1.42,3.4.29,1.41,2.55,4.53,0,.85-.85,2.26-1.7,2.26-2.83l-1.41-1.41-2.83,2.83c-4.82-3.12,2.26-5.95-.57-10.2C1425.58,446.15,1427.85,447.85,1426.15,450.12Z"/><path class="cls-4" d="M1220.28,445.87c3.12,7.65,9.91,11.61,5.38,18.41l2,3.39a7.2,7.2,0,0,1,4.42-.61c1.84.25,8.89,4.86,7.19,10.24.85,2.55-2,8.21-2,8.21-.85.85-2,.85-2.83,2-1.13,0-.28,2.26-.56,3.39l4.2-3.83c-.29,3.39,1.18,5.82.61,7.23,6.51-6.23,11.61-11.32,19.54-8.21,1.7,2.27,17.27,7.36,21.8,4l.71-2.29-.71-2.24c-5.09,4-16.14,0-16.14,0s-1.13-.56-1.41,0c-6.23-2-12.46-5.94-13.6-13-.28-1.7,1.42-3.4,0-5.38-1.7,3.11-2.54,7.08-.85,10.76a23.06,23.06,0,0,1,4.82,6.23c-3.4.85-9.35.28-12.18,4.81-2.83-2-.28-5.66.57-6.79,3.18-8.13-3.4-14.73-3.4-14.73l-.57-.28-4-2.83h-2.83c1.41-7.37-4.82-11.33-7.36-18.41Z"/><path class="cls-4" d="M1335.82,450.68c-.85,3.12,6.51,5.95,6.79,5.38l2.84,1.42c1.41-2-2.55-4.25-4.25-5.38l-.57-.57Z"/><path class="cls-4" d="M1346.58,460.88c1.41,1.7,2.83,5.09,5.66,6.23,1.42-2.55,3.4,2,4.53-1.42-2.83-4-8.21-.56-7.93-7.36l-2.83.57Z"/><path class="cls-4" d="M1335.34,466.24a3.26,3.26,0,0,0-3.49-2.53c4.25,4.53-.56,7.08,2.55,12.18,1.7-1.14,2.27-3.4,4.82-3.4l.56-2C1335.47,473,1336.11,469.09,1335.34,466.24Z"/><path class="cls-4" d="M1204.71,473.05c-.57-.28-4.25.57-4.81,2.27,0,.85-1.7,2,0,2.55,5.94-3.4,9.34,5.66,15,4.81-2.26,8.21-.28,16.71,8.78,23.79.57.28.85-.28,1.42-.57-5.1-4.53-6.52-9.91-9.63-16.42-1.13-4.82,6.23-10.2.85-13-2.27,2.27-4.53,2.55-7.65,1.42-5.94-4.53,9.07-7.36,2-12.74C1211.22,468,1208.11,471.92,1204.71,473.05Z"/><path class="cls-4" d="M1410.57,471.92c-4.24,3.4.85,7.36-2.83,11.33h2.83c1.7-2.27-1.13-5.67,2.84-7.93,2.83,1.7,6.51-.57,8.77-.85v-2.55C1419.35,472.77,1414.54,475.89,1410.57,471.92Z"/><path class="cls-4" d="M1370.36,477.3c-.85-.56-2.26-2-2.54,1.42,2.54-.29,5.94,2.55,7.36,5.38.28.56-.29.85-.57,1.41l1.42,1.14c1.41-2-3.68-9.35,3.4-10.76l.56-2C1377.73,473.9,1372.94,479,1370.36,477.3Z"/><path class="cls-4" d="M1292.21,492.88c1.41,3.68,3.68,6.23,1.41,10.19-3.11,1.13-6.79,3.12-8.77,2.83,3.11,3.4,8.77-1.41,10.76,4,3.11.28,8.78,1.41,9.62,1.41,6.23,4.82,11.33-6.23,17,3.4,2.26-2,3.68,4,7.36,2,4.25.57,7.93,4.25,12.46,2-3.68-1.13-3.4-5.66-6.23-8.21,0,.57-.29,5.38-3.4,4.82-5.38-2.27-15.29-2.84-15.58-11.61h-1.41c-1.13,2.26.85,5.38-2.83,6.23-3.12-2.27-4.25,2.54-6.8-1.42.28.57-7.93,1.13-10.76-2.55,3.12-2.83,2.55-5.38,2-9.63C1293.06,495.42,1296.74,488.91,1292.21,492.88Z"/><path class="cls-4" d="M1250.87,510.43l.56.85c0-4,5.38-7.08,6.23-6.79-1.13-3.68-4.81-1.42-6.23-2C1251.43,505.05,1252,507.32,1250.87,510.43Z"/><path class="cls-4" d="M1235.86,517.23c-5.5,1.48,10.19,4.81,14.44-1.13,4,1.7,6.23,5.38,9.34,7.93,3.12-1.42,6.23,1.13,8.78,2.26,5.1,0,9.91-3.68,13,1.13,1.46,1,12.57,4.83,15,2.83,2.26,1.7,5.38,7.93,8.77,4.82-2.54-.28-2-2.83-2-4.82,2.27,0,4-2.54,5.38-4.81h-2.83c-1.41,3.12-4-.28-6,2.83-3.68-2.26-5.09,2.55-9.62,0-5.67-1.13-11.61-4.24-12.75-11.61l.57-.56c-.57-.57-1.13-1.7-2-1.42a4.25,4.25,0,0,0,.56,5.38c-2.83,4.53-7.92,2.55-12.17,2.83-4.53,0-9.63-6.79-11.61-10.19C1246.9,515,1242.37,517.23,1235.86,517.23Z"/><path class="cls-4" d="M1351.39,520.63l-4,.85c1.7,2.55,8.49,2.26,12.74,3.39,3.68-.28,4.25,6.23,7.65,2.55-.85-.85-2.27-1.41-2-2.55,2,1.14,4.25-2.26,3.4-4.24C1362.72,521.76,1356.49,524.87,1351.39,520.63Z"/><path class="cls-4" d="M1350,531.67c-8.5,1.7-15.3,2.27-22.94,0,3.68,4,10.76,4.25,16.14,3.4,1.13-2.55,3.4,2,3.4-1.42,3.11,3.12,5.09,2.27,6.23,6.23,2.26-.85,1.41-5.09.56-6.79l-3.39-2.27Z"/></g></svg>